<?xml version="1.0" encoding="UTF-8" standalone="no"?>
<!-- Created with Inkscape (http://www.inkscape.org/) -->

<svg
   xmlns:dc="http://purl.org/dc/elements/1.1/"
   xmlns:cc="http://creativecommons.org/ns#"
   xmlns:rdf="http://www.w3.org/1999/02/22-rdf-syntax-ns#"
   xmlns:svg="http://www.w3.org/2000/svg"
   xmlns="http://www.w3.org/2000/svg"
   xmlns:xlink="http://www.w3.org/1999/xlink"
   xmlns:sodipodi="http://sodipodi.sourceforge.net/DTD/sodipodi-0.dtd"
   xmlns:inkscape="http://www.inkscape.org/namespaces/inkscape"
   width="300"
   height="150"
   id="svg2"
   version="1.1"
   inkscape:version="0.48.1 "
   sodipodi:docname="mcsearch.svg">
  <defs
     id="defs4">
    <linearGradient
       id="linearGradient3991">
      <stop
         id="stop3993"
         offset="0"
         style="stop-color:#4d4d4d;stop-opacity:1;" />
      <stop
         style="stop-color:#000000;stop-opacity:1;"
         offset="0.25"
         id="stop4005" />
      <stop
         id="stop3995"
         offset="1"
         style="stop-color:#000000;stop-opacity:1;" />
    </linearGradient>
    <linearGradient
       id="linearGradient3769">
      <stop
         style="stop-color:#505250;stop-opacity:1;"
         offset="0"
         id="stop3771" />
      <stop
         style="stop-color:#000000;stop-opacity:1;"
         offset="1"
         id="stop3773" />
    </linearGradient>
    <linearGradient
       id="linearGradient3757">
      <stop
         style="stop-color:#ff6221;stop-opacity:1;"
         offset="0"
         id="stop3759" />
      <stop
         style="stop-color:#e27220;stop-opacity:1;"
         offset="1"
         id="stop3761" />
    </linearGradient>
    <linearGradient
       inkscape:collect="always"
       xlink:href="#linearGradient3757"
       id="linearGradient3763"
       x1="295.39859"
       y1="283.87076"
       x2="297.53842"
       y2="358.28568"
       gradientUnits="userSpaceOnUse"
       gradientTransform="translate(-155.8066,676.93526)" />
    <linearGradient
       inkscape:collect="always"
       xlink:href="#linearGradient3769"
       id="linearGradient3775"
       x1="305.13614"
       y1="268.57816"
       x2="308.46402"
       y2="340.36459"
       gradientUnits="userSpaceOnUse"
       gradientTransform="matrix(1.1143778,0,0,1.1143778,-88.163972,-3.0356544)" />
    <filter
       id="filter3931"
       inkscape:label="Drop shadow"
       width="1.5"
       height="1.5"
       x="-0.25"
       y="-0.25"
       color-interpolation-filters="sRGB">
      <feGaussianBlur
         id="feGaussianBlur3933"
         in="SourceAlpha"
         stdDeviation="2"
         result="blur" />
      <feColorMatrix
         id="feColorMatrix3935"
         result="bluralpha"
         type="matrix"
         values="1 0 0 0 0 0 1 0 0 0 0 0 1 0 0 0 0 0 0.5 0 " />
      <feOffset
         id="feOffset3937"
         in="bluralpha"
         dx="4"
         dy="4"
         result="offsetBlur" />
      <feMerge
         id="feMerge3939">
        <feMergeNode
           id="feMergeNode3941"
           in="offsetBlur" />
        <feMergeNode
           id="feMergeNode3943"
           in="SourceGraphic" />
      </feMerge>
    </filter>
    <linearGradient
       inkscape:collect="always"
       xlink:href="#linearGradient3769"
       id="linearGradient3958"
       gradientUnits="userSpaceOnUse"
       gradientTransform="matrix(1.0635233,-0.20146873,0.18586503,1.1324547,-84.646927,12.854296)"
       x1="305.13614"
       y1="268.57816"
       x2="308.46402"
       y2="340.36459" />
    <linearGradient
       inkscape:collect="always"
       xlink:href="#linearGradient3769"
       id="linearGradient3963"
       gradientUnits="userSpaceOnUse"
       gradientTransform="matrix(1.1143778,0,0,1.1143778,-88.163972,-3.0356544)"
       x1="305.13614"
       y1="268.57816"
       x2="308.46402"
       y2="340.36459" />
    <filter
       id="filter4043"
       inkscape:label="Drop shadow"
       width="1.5"
       height="1.5"
       x="-0.25"
       y="-0.25"
       color-interpolation-filters="sRGB">
      <feGaussianBlur
         id="feGaussianBlur4045"
         in="SourceAlpha"
         stdDeviation="1"
         result="blur" />
      <feColorMatrix
         id="feColorMatrix4047"
         result="bluralpha"
         type="matrix"
         values="1 0 0 0 0 0 1 0 0 0 0 0 1 0 0 0 0 0 0.25 0 " />
      <feOffset
         id="feOffset4049"
         in="bluralpha"
         dx="2"
         dy="2"
         result="offsetBlur" />
      <feMerge
         id="feMerge4051">
        <feMergeNode
           id="feMergeNode4053"
           in="offsetBlur" />
        <feMergeNode
           id="feMergeNode4055"
           in="SourceGraphic" />
      </feMerge>
    </filter>
    <filter
       id="filter3969"
       inkscape:label="Drop shadow"
       width="1.5"
       height="1.5"
       x="-0.25"
       y="-0.25"
       color-interpolation-filters="sRGB">
      <feGaussianBlur
         id="feGaussianBlur3971"
         in="SourceAlpha"
         stdDeviation="2"
         result="blur" />
      <feColorMatrix
         id="feColorMatrix3973"
         result="bluralpha"
         type="matrix"
         values="1 0 0 0 0 0 1 0 0 0 0 0 1 0 0 0 0 0 0.5 0 " />
      <feOffset
         id="feOffset3975"
         in="bluralpha"
         dx="2"
         dy="2"
         result="offsetBlur" />
      <feMerge
         id="feMerge3977">
        <feMergeNode
           id="feMergeNode3979"
           in="offsetBlur" />
        <feMergeNode
           id="feMergeNode3981"
           in="SourceGraphic" />
      </feMerge>
    </filter>
    <linearGradient
       inkscape:collect="always"
       xlink:href="#linearGradient3991"
       id="linearGradient3989"
       x1="224.51956"
       y1="350.8559"
       x2="224.64821"
       y2="399.3627"
       gradientUnits="userSpaceOnUse" />
    <linearGradient
       inkscape:collect="always"
       xlink:href="#linearGradient3991"
       id="linearGradient4003"
       x1="224.51956"
       y1="350.8559"
       x2="224.64821"
       y2="399.3627"
       gradientUnits="userSpaceOnUse" />
    <linearGradient
       inkscape:collect="always"
       xlink:href="#linearGradient3991"
       id="linearGradient4007"
       gradientUnits="userSpaceOnUse"
       x1="224.51956"
       y1="350.8559"
       x2="224.64821"
       y2="399.3627" />
    <linearGradient
       inkscape:collect="always"
       xlink:href="#linearGradient3991"
       id="linearGradient4009"
       gradientUnits="userSpaceOnUse"
       x1="224.51956"
       y1="350.8559"
       x2="224.64821"
       y2="399.3627" />
    <linearGradient
       inkscape:collect="always"
       xlink:href="#linearGradient3991"
       id="linearGradient4011"
       gradientUnits="userSpaceOnUse"
       x1="224.51956"
       y1="350.8559"
       x2="224.64821"
       y2="399.3627" />
    <linearGradient
       inkscape:collect="always"
       xlink:href="#linearGradient3991"
       id="linearGradient4013"
       gradientUnits="userSpaceOnUse"
       x1="224.51956"
       y1="350.8559"
       x2="224.64821"
       y2="399.3627" />
    <linearGradient
       inkscape:collect="always"
       xlink:href="#linearGradient3991"
       id="linearGradient4015"
       gradientUnits="userSpaceOnUse"
       x1="224.51956"
       y1="350.8559"
       x2="224.64821"
       y2="399.3627" />
    <linearGradient
       inkscape:collect="always"
       xlink:href="#linearGradient3991"
       id="linearGradient4017"
       gradientUnits="userSpaceOnUse"
       x1="224.51956"
       y1="350.8559"
       x2="224.64821"
       y2="399.3627" />
    <linearGradient
       inkscape:collect="always"
       xlink:href="#linearGradient3991"
       id="linearGradient4019"
       gradientUnits="userSpaceOnUse"
       x1="224.51956"
       y1="350.8559"
       x2="224.64821"
       y2="399.3627" />
    <linearGradient
       inkscape:collect="always"
       xlink:href="#linearGradient3991"
       id="linearGradient4021"
       gradientUnits="userSpaceOnUse"
       x1="224.51956"
       y1="350.8559"
       x2="224.64821"
       y2="399.3627" />
    <linearGradient
       inkscape:collect="always"
       xlink:href="#linearGradient3991"
       id="linearGradient4023"
       gradientUnits="userSpaceOnUse"
       x1="224.51956"
       y1="350.8559"
       x2="224.64821"
       y2="399.3627" />
    <linearGradient
       inkscape:collect="always"
       xlink:href="#linearGradient3991"
       id="linearGradient4025"
       gradientUnits="userSpaceOnUse"
       x1="224.51956"
       y1="350.8559"
       x2="224.64821"
       y2="399.3627" />
    <linearGradient
       inkscape:collect="always"
       xlink:href="#linearGradient3991"
       id="linearGradient4027"
       gradientUnits="userSpaceOnUse"
       x1="224.51956"
       y1="350.8559"
       x2="224.64821"
       y2="399.3627" />
    <linearGradient
       inkscape:collect="always"
       xlink:href="#linearGradient3991"
       id="linearGradient4029"
       gradientUnits="userSpaceOnUse"
       x1="224.51956"
       y1="350.8559"
       x2="224.64821"
       y2="399.3627" />
  </defs>
  <sodipodi:namedview
     id="base"
     pagecolor="#ffffff"
     bordercolor="#666666"
     borderopacity="1.0"
     inkscape:pageopacity="0.0"
     inkscape:pageshadow="2"
     inkscape:zoom="2.1213203"
     inkscape:cx="110.14291"
     inkscape:cy="105.23106"
     inkscape:document-units="px"
     inkscape:current-layer="layer3"
     showgrid="false"
     inkscape:window-width="1164"
     inkscape:window-height="812"
     inkscape:window-x="-1"
     inkscape:window-y="0"
     inkscape:window-maximized="0" />
  <metadata
     id="metadata7">
    <rdf:RDF>
      <cc:Work
         rdf:about="">
        <dc:format>image/svg+xml</dc:format>
        <dc:type
           rdf:resource="http://purl.org/dc/dcmitype/StillImage" />
        <dc:title />
      </cc:Work>
    </rdf:RDF>
  </metadata>
  <g
     inkscape:label="MC"
     inkscape:groupmode="layer"
     id="layer1"
     style="display:inline"
     transform="translate(0,-902.36218)">
    <text
       xml:space="preserve"
       style="font-size:40px;font-style:normal;font-weight:normal;line-height:125%;letter-spacing:0px;word-spacing:0px;fill:url(#linearGradient3763);fill-opacity:1;stroke:#000000;stroke-width:4.19999981;stroke-linejoin:round;stroke-miterlimit:4;stroke-opacity:1;stroke-dasharray:none;filter:url(#filter3931);font-family:Sans"
       x="21.33625"
       y="1026.4403"
       id="text2985"
       sodipodi:linespacing="125%"
       transform="matrix(1.115977,0,0,1.2592762,-17.39655,-255.40676)"><tspan
         sodipodi:role="line"
         id="tspan2987"
         x="21.33625"
         y="1026.4403"
         style="font-size:144px;font-style:normal;font-variant:normal;font-weight:bold;font-stretch:normal;fill:url(#linearGradient3763);fill-opacity:1;stroke:#000000;stroke-width:4.19999981;stroke-linejoin:round;stroke-miterlimit:4;stroke-opacity:1;stroke-dasharray:none;font-family:Rockwell;-inkscape-font-specification:Rockwell Bold"
         dx="0 -5.3600001">MC</tspan></text>
    <g
       transform="matrix(0.95436508,-0.18079033,0.16678817,1.0162215,4.5454545,-0.34965035)"
       style="font-size:44.57510376px;font-style:normal;font-weight:normal;line-height:125%;letter-spacing:0px;word-spacing:0px;fill:url(#linearGradient3963);fill-opacity:1;stroke:#e6e6e6;stroke-width:0.89999998;stroke-linecap:round;stroke-linejoin:round;stroke-miterlimit:4;stroke-opacity:1;stroke-dasharray:none;filter:url(#filter4043);font-family:Sans"
       id="text3765" />
    <flowRoot
       xml:space="preserve"
       id="flowRoot3053"
       style="font-size:40px;font-style:normal;font-weight:normal;line-height:125%;letter-spacing:0px;word-spacing:0px;fill:#000000;fill-opacity:1;stroke:none;font-family:Sans"><flowRegion
         id="flowRegion3055"><rect
           id="rect3057"
           width="160.66667"
           height="41.333332"
           x="225.33333"
           y="294.36218" /></flowRegion><flowPara
         id="flowPara3059" /></flowRoot>  </g>
  <g
     inkscape:groupmode="layer"
     id="layer3"
     inkscape:label="searchwhite"
     style="display:inline"
     transform="translate(0,-902.36218)">
    <g
       id="g3062"
       transform="matrix(1.115977,0,0,1.2592762,-17.396549,-255.40675)">
      <g
         transform="matrix(0.99742764,-0.19228788,0.22480498,0.95924024,-153.79298,679.68015)"
         style="font-size:82.24489594px;font-style:normal;font-weight:normal;line-height:125%;letter-spacing:0px;word-spacing:0px;fill:#000003;fill-opacity:1;stroke:#ffffff;stroke-width:3.5;stroke-miterlimit:4;stroke-opacity:1;stroke-dasharray:none;filter:url(#filter3969);font-family:Script MT Bold;-inkscape-font-specification:Script MT Bold"
         id="g3876">
        <path
           d="m 167.28435,368.04708 c -0.66935,-1.23152 -1.67331,-2.34258 -3.0119,-3.33317 -1.33865,-0.99056 -2.8446,-1.78704 -4.51784,-2.38944 -1.67331,-0.60236 -3.42021,-1.0508 -5.2407,-1.34531 -5.40806,-0.80316 -10.45466,-2.55675 -15.13981,-5.26079 -0.4016,-0.21415 -0.82996,-0.66928 -1.28508,-1.36539 -0.45514,-0.69606 -0.68271,-1.36537 -0.6827,-2.00793 -1e-5,-2.35595 0.39488,-4.71861 1.18468,-7.088 0.78978,-2.36933 1.80043,-4.22331 3.03198,-5.56197 1.98114,-2.22207 5.54856,-4.16307 10.70228,-5.82301 5.15366,-1.65984 10.95658,-2.48978 17.40877,-2.48983 3.85518,5e-5 6.83361,0.29454 8.9353,0.88349 2.10158,0.58904 3.15239,1.4993 3.15245,2.73079 -6e-5,2.00797 -0.27447,3.56077 -0.82325,4.6584 -0.54889,1.09771 -1.13788,1.82725 -1.76698,2.18864 -0.62921,0.36147 -1.73357,0.85006 -3.31309,1.46579 -1.68671,0.58903 -3.1525,1.2048 -4.39737,1.8473 -1.24496,0.64257 -2.30917,1.25834 -3.19261,1.8473 -0.88354,0.58902 -1.43237,0.88352 -1.64651,0.88349 -0.26776,3e-5 -0.40162,-0.10706 -0.40158,-0.32127 -4e-5,-0.4551 0.47517,-1.14449 1.42563,-2.06817 0.95038,-0.92361 2.12167,-1.73348 3.51388,-2.4296 1.47244,-0.77636 2.20868,-1.27165 2.20872,-1.48587 -4e-5,-0.348 -0.8166,-0.52202 -2.44967,-0.52206 -4.95294,4e-5 -9.53102,0.44178 -13.73426,1.32524 -4.2033,0.88352 -7.51638,2.04812 -9.93926,3.4938 -2.42293,1.44574 -3.63438,2.91822 -3.63436,4.41745 -2e-5,0.93706 0.50197,1.59968 1.50595,1.98785 1.00395,0.38823 3.21936,1.03746 6.64626,1.94769 3.42684,0.91029 6.49228,1.95441 9.19632,3.13238 3.88197,1.65991 6.76,3.38673 8.63411,5.18046 1.87403,1.79377 2.81106,3.8017 2.81111,6.0238 -5e-5,1.52604 -0.36817,3.05876 -1.10437,4.59816 -0.73628,1.53942 -1.81387,2.95167 -3.23277,4.23674 -1.41898,1.28508 -3.05209,2.34259 -4.89935,3.17253 -1.57961,0.66931 -3.56746,1.29846 -5.96356,1.88746 -2.39616,0.58899 -4.99308,1.05081 -7.79077,1.38547 -2.79774,0.33465 -5.46829,0.50198 -8.01165,0.50198 -4.68519,0 -8.4534,-0.44174 -11.30466,-1.32523 -2.85127,-0.88349 -4.2769,-2.22211 -4.2769,-4.01586 0,-0.80318 0.48191,-2.05479 1.44572,-3.75484 0.9638,-1.70004 2.10163,-2.84456 3.41348,-3.43356 1.15121,-0.45512 2.26226,-0.71616 3.33317,-0.78309 1.07088,-0.0669 1.60633,0.0602 1.60634,0.3815 -1e-5,0.0803 -0.0402,0.16064 -0.12047,0.24095 -0.0803,0.0803 -0.17403,0.14726 -0.28111,0.2008 -0.1071,0.0536 -0.21419,0.10709 -0.32127,0.16063 -0.53546,0.21419 -0.97051,0.38152 -1.30516,0.50198 -0.33466,0.12049 -0.60239,0.24096 -0.80317,0.36143 -0.2008,0.12049 -0.3012,0.28781 -0.30119,0.50199 -1e-5,0.56222 2.77093,0.84333 8.31284,0.84333 4.81901,0 8.76794,-0.17402 11.8468,-0.52207 3.07879,-0.34803 5.79619,-0.97718 8.1522,-1.88745 2.35594,-0.91026 4.49773,-2.16856 6.42538,-3.77491 z"
           style="font-style:oblique;font-variant:normal;font-stretch:normal;fill:#000003;fill-opacity:1;stroke:#ffffff;stroke-width:3.5;stroke-miterlimit:4;stroke-opacity:1;stroke-dasharray:none;font-family:Brush Script MT;-inkscape-font-specification:Brush Script MT Oblique"
           id="path3878"
           inkscape:connector-curvature="0" />
        <path
           d="m 185.31558,368.44866 0,1.00397 c 0,1.57958 0.3882,2.81111 1.1646,3.69459 0.77639,0.8835 1.79375,1.32524 3.05206,1.32524 1.31184,0 2.67054,-0.30788 4.0761,-0.92365 1.40554,-0.61576 2.8044,-1.43232 4.19658,-2.44968 1.39214,-1.01734 3.09219,-2.38273 5.10015,-4.09618 l 0,2.44968 c -3.02531,3.64106 -5.86318,6.43208 -8.51363,8.37308 -2.65049,1.941 -5.34111,2.9115 -8.07189,2.9115 -2.38275,0 -4.27021,-0.92365 -5.66237,-2.77095 -1.39217,-1.84729 -2.08825,-4.37729 -2.08825,-7.58998 0,-2.8111 0.65592,-5.36117 1.96777,-7.65022 1.31185,-2.28903 3.45364,-4.70524 6.42539,-7.24864 2.03469,-1.74018 4.05601,-3.05203 6.06395,-3.93554 2.00792,-0.88347 3.80167,-1.32521 5.38126,-1.32524 1.25828,3e-5 2.25555,0.28783 2.99182,0.86341 0.73622,0.57564 1.10434,1.43905 1.10436,2.59023 -2e-5,1.68669 -0.62918,3.36666 -1.88746,5.03991 -1.25832,1.6733 -3.17924,3.33319 -5.76276,4.97967 -2.58355,1.64652 -5.76278,3.23279 -9.53768,4.7588 z m 0.40159,-2.61031 c 2.40951,-0.93702 4.47098,-2.10162 6.18443,-3.4938 1.71342,-1.39215 2.97842,-2.72407 3.79499,-3.99579 0.81654,-1.27166 1.22482,-2.202 1.22484,-2.79102 -2e-5,-0.61574 -0.28113,-0.92362 -0.84333,-0.92365 -0.48192,3e-5 -1.26502,0.30791 -2.34928,0.92365 -1.0843,0.61579 -2.18197,1.41896 -3.29301,2.40952 -1.11107,0.9906 -2.10834,2.1552 -2.99182,3.4938 -0.8835,1.33864 -1.4591,2.79773 -1.72682,4.37729 z"
           style="font-style:oblique;font-variant:normal;font-stretch:normal;fill:#000003;fill-opacity:1;stroke:#ffffff;stroke-width:3.5;stroke-miterlimit:4;stroke-opacity:1;stroke-dasharray:none;font-family:Brush Script MT;-inkscape-font-specification:Brush Script MT Oblique"
           id="path3880"
           inkscape:connector-curvature="0" />
        <path
           d="m 207.68395,359.81456 c 4.0694,-3.69458 8.01833,-6.43875 11.8468,-8.23253 3.82843,-1.79372 6.78678,-2.69059 8.87506,-2.69063 0.56219,4e-5 1.08425,0.23429 1.56618,0.70278 0.48188,0.46855 0.86339,1.01069 1.14453,1.62643 0.28108,0.61579 0.42163,1.07092 0.42166,1.36539 -3e-5,0.48193 -0.18743,0.83666 -0.56222,1.0642 -0.37484,0.2276 -1.03077,0.50201 -1.96777,0.82326 0.18738,0.42838 0.42833,0.97721 0.72285,1.6465 0.29447,0.66933 0.52204,1.21147 0.6827,1.62643 0.16061,0.41499 0.24092,0.78311 0.24095,1.10436 -3e-5,0.64256 -0.64926,1.84062 -1.94769,3.5942 -1.29849,1.75361 -2.20875,3.04537 -2.73079,3.8753 -0.52209,0.82996 -0.78312,1.84731 -0.78309,3.05206 -3e-5,1.98117 0.91023,2.97175 2.73078,2.97174 1.87405,1e-5 4.80562,-1.75358 8.79475,-5.26078 l 0,2.44968 c -6.77346,7.52305 -11.61926,11.28457 -14.53743,11.28457 -1.04415,0 -1.78708,-0.34135 -2.22881,-1.02404 -0.44176,-0.6827 -0.66263,-1.69336 -0.66261,-3.03198 -2e-5,-2.11502 0.76299,-5.18046 2.28904,-9.19633 -3.90879,4.33714 -6.8136,7.42266 -8.71443,9.25657 -1.90085,1.83391 -3.46703,2.75087 -4.69856,2.75087 -0.589,0 -1.32524,-0.50868 -2.20872,-1.52603 -0.8835,-1.01735 -1.66659,-2.33589 -2.34928,-3.95563 -0.6827,-1.61972 -1.02405,-3.29969 -1.02405,-5.03991 0,-1.25829 0.12048,-2.30911 0.36143,-3.15245 0.24095,-0.84332 0.70947,-1.70673 1.40555,-2.59023 0.69608,-0.88348 1.80714,-2.04808 3.33317,-3.4938 z m 19.23599,-4.41746 c -6.96085,3.18594 -11.92044,5.88996 -14.87878,8.11205 -2.95836,2.22213 -4.43753,4.51117 -4.43753,6.86713 0,0.85672 0.14724,1.5595 0.44175,2.10833 0.29449,0.54884 0.69607,0.82325 1.20476,0.82325 0.29449,0 0.81655,-0.1874 1.56618,-0.56222 2.8111,-1.65988 5.38125,-3.82176 7.71046,-6.48562 2.32918,-2.66384 5.1269,-6.28481 8.39316,-10.86292 z"
           style="font-style:oblique;font-variant:normal;font-stretch:normal;fill:#000003;fill-opacity:1;stroke:#ffffff;stroke-width:3.5;stroke-miterlimit:4;stroke-opacity:1;stroke-dasharray:none;font-family:Brush Script MT;-inkscape-font-specification:Brush Script MT Oblique"
           id="path3882"
           inkscape:connector-curvature="0" />
        <path
           d="m 235.99579,370.09517 0,-2.61031 c 1.44571,-1.71343 2.54338,-3.17252 3.29301,-4.3773 -0.85672,-0.29448 -1.47918,-0.6559 -1.86738,-1.08428 -0.3882,-0.42834 -0.5823,-1.07088 -0.5823,-1.92761 0,-0.96379 0.40159,-2.18194 1.20476,-3.65444 0.80317,-1.47246 1.79375,-2.85124 2.97174,-4.13634 1.17798,-1.28505 2.24888,-2.11499 3.21269,-2.48984 0.37481,-0.18737 0.73623,-0.28108 1.08428,-0.28111 0.53544,3e-5 0.80317,0.25437 0.80318,0.76302 -1e-5,0.45516 -0.41499,1.37881 -1.24492,2.77094 5.5151,-0.85669 8.99552,-1.28505 10.44125,-1.28507 0.5622,2e-5 0.9504,0.0536 1.1646,0.16063 0.45511,0.24098 0.82992,0.8032 1.12444,1.68666 0.29447,0.88352 0.44172,1.76701 0.44174,2.65047 -2e-5,0.56225 -0.24766,1.17132 -0.74293,1.82722 -0.49531,0.65595 -1.34534,1.61306 -2.55008,2.87135 -1.41895,1.52604 -2.61032,3.18593 -3.57411,4.97967 -0.96383,1.79376 -1.44573,3.14577 -1.44572,4.05602 -1e-5,1.25831 0.77639,1.88746 2.32921,1.88746 1.6331,0 4.47097,-1.65989 8.51363,-4.97968 l 0,2.69063 c -2.22214,2.32921 -4.05605,4.16312 -5.50174,5.50174 -1.44573,1.33862 -2.78435,2.40282 -4.01586,3.19261 -1.23155,0.78979 -2.32922,1.18468 -3.29301,1.18468 -1.12445,0 -2.06149,-0.51537 -2.8111,-1.54611 -0.74964,-1.03073 -1.12445,-2.5233 -1.12445,-4.47769 0,-1.1512 0.29449,-2.46305 0.88349,-3.93554 0.58899,-1.47248 1.4524,-3.07213 2.59024,-4.79896 1.13781,-1.72681 2.41619,-3.44693 3.83515,-5.16039 -0.74965,0.16066 -1.59298,0.32799 -2.53,0.50199 -0.93704,0.17404 -1.92762,0.35475 -2.97174,0.54214 -1.04413,0.18742 -1.8473,0.33467 -2.40952,0.44174 -1.65989,3.3198 -4.06941,6.33169 -7.22855,9.0357 z"
           style="font-style:oblique;font-variant:normal;font-stretch:normal;fill:#000003;fill-opacity:1;stroke:#ffffff;stroke-width:3.5;stroke-miterlimit:4;stroke-opacity:1;stroke-dasharray:none;font-family:Brush Script MT;-inkscape-font-specification:Brush Script MT Oblique"
           id="path3884"
           inkscape:connector-curvature="0" />
        <path
           d="m 284.66806,367.08327 0,2.69063 c -2.86467,2.81111 -5.20056,4.99306 -7.00768,6.54586 -1.80716,1.5528 -3.49382,2.75756 -5.05999,3.61427 -1.5662,0.85672 -3.09892,1.28508 -4.59816,1.28508 -1.47249,0 -2.8245,-0.5823 -4.05603,-1.7469 -1.23153,-1.1646 -2.19534,-2.69063 -2.89142,-4.57809 -0.69608,-1.88744 -1.04412,-3.88868 -1.04412,-6.00371 0,-1.82051 0.40158,-3.44024 1.20476,-4.8592 0.80317,-1.41892 2.35597,-3.25283 4.6584,-5.50173 2.73078,-2.67722 5.26746,-4.74539 7.61006,-6.20451 2.34257,-1.45907 4.18317,-2.18862 5.52181,-2.18865 0.96379,3e-5 1.78035,0.33469 2.44968,1.00397 0.66929,0.66934 1.00394,1.51267 1.00397,2.52999 -3e-5,0.85675 -0.44177,2.07489 -1.32524,3.65444 -0.88351,1.57959 -1.87409,2.95168 -2.97174,4.11626 -1.09769,1.16462 -1.96779,1.74692 -2.61031,1.7469 -0.6961,2e-5 -1.04414,-0.3748 -1.04412,-1.12444 0.0267,-0.21416 0.0468,-0.41496 0.0602,-0.60238 0.0134,-0.18739 0.0201,-0.3748 0.0201,-0.56222 -1e-5,-0.32125 -0.11379,-0.50197 -0.34135,-0.54214 -0.22758,-0.0401 -0.50199,0.0602 -0.82325,0.30119 -2.67725,1.87408 -4.51116,3.19262 -5.50173,3.95562 -0.99059,0.76303 -1.77368,1.53274 -2.34928,2.30912 -0.57561,0.77642 -0.86342,1.59298 -0.86341,2.44968 -10e-6,1.57958 0.50867,2.86466 1.52603,3.85523 1.01734,0.99059 2.34257,1.48588 3.9757,1.48587 1.68665,10e-6 3.71466,-0.64922 6.08403,-1.94769 2.36935,-1.29846 5.16037,-3.19261 8.37308,-5.68245 z"
           style="font-style:oblique;font-variant:normal;font-stretch:normal;fill:#000003;fill-opacity:1;stroke:#ffffff;stroke-width:3.5;stroke-miterlimit:4;stroke-opacity:1;stroke-dasharray:none;font-family:Brush Script MT;-inkscape-font-specification:Brush Script MT Oblique"
           id="path3886"
           inkscape:connector-curvature="0" />
        <path
           d="m 314.62641,367.00295 0,2.53 c -2.32923,2.38275 -4.34386,4.33044 -6.04388,5.84308 -1.70007,1.51264 -3.18594,2.65716 -4.45761,3.43356 -1.27171,0.7764 -2.3493,1.1646 -3.23277,1.1646 -2.08826,0 -3.13239,-1.23153 -3.13237,-3.69459 -2e-5,-1.98116 0.64921,-4.27689 1.94769,-6.88721 1.29845,-2.6103 3.16582,-5.68243 5.60213,-9.21641 -1.20478,0.66933 -2.3426,1.43904 -3.41348,2.30912 -1.07092,0.87012 -2.02134,1.78039 -2.85127,2.73079 -0.82995,0.95044 -1.52604,1.7603 -2.08824,2.4296 -1.74022,1.9544 -3.4135,3.95563 -5.01983,6.00372 -1.60636,2.04809 -2.69064,3.38002 -3.25285,3.99578 -0.56223,0.61577 -1.09768,0.92365 -1.60635,0.92365 -2.08825,0 -3.13237,-2.57015 -3.13237,-7.71046 0,-1.68665 0.25433,-3.54733 0.76301,-5.58205 0.50867,-2.03469 1.87407,-4.72531 4.09618,-8.07189 4.68517,-7.01434 8.69433,-12.75033 12.02751,-17.20797 3.33315,-4.45757 6.0974,-7.83089 8.29276,-10.11998 2.19531,-2.28899 3.6678,-3.40674 4.41745,-3.35325 0.93701,0.0804 1.69333,0.26778 2.26897,0.56222 0.57557,0.29455 0.86338,0.62921 0.86341,1.00397 -3e-5,0.66936 -0.46186,1.77372 -1.38548,3.31309 -0.92367,1.53946 -2.50994,3.94228 -4.75879,7.20847 -2.43632,3.45368 -4.16314,5.88328 -5.18047,7.2888 -1.01737,1.40558 -2.53671,3.40012 -4.558,5.98363 -2.02134,2.58357 -3.86863,4.88599 -5.5419,6.90729 -1.67328,2.02134 -3.58082,4.20998 -5.7226,6.56594 l 0,4.81903 c 3.58749,-3.98907 6.69309,-7.25531 9.3168,-9.7987 2.62368,-2.54336 4.84579,-4.46428 6.66634,-5.76277 1.8205,-1.29844 3.15912,-1.94767 4.01586,-1.94769 0.80315,2e-5 1.55277,0.47523 2.24888,1.42563 0.69606,0.95044 1.0441,1.73354 1.04413,2.34928 -3e-5,0.26775 -0.13389,0.6024 -0.40159,1.00397 -1.92764,2.30244 -3.46036,4.20998 -4.59816,5.7226 -1.13785,1.51266 -2.01465,2.86466 -2.63039,4.05602 -0.61579,1.19139 -0.92367,2.21543 -0.92365,3.07214 -2e-5,1.25831 0.60236,1.88746 1.80714,1.88746 1.28505,0 4.13631,-1.72682 8.55379,-5.18047 z"
           style="font-style:oblique;font-variant:normal;font-stretch:normal;fill:#000003;fill-opacity:1;stroke:#ffffff;stroke-width:3.5;stroke-miterlimit:4;stroke-opacity:1;stroke-dasharray:none;font-family:Brush Script MT;-inkscape-font-specification:Brush Script MT Oblique"
           id="path3888"
           inkscape:connector-curvature="0" />
      </g>
    </g>
  </g>
  <g
     inkscape:groupmode="layer"
     id="layer2"
     inkscape:label="Search"
     style="display:inline"
     transform="translate(0,-902.36218)">
    <g
       transform="matrix(1.1131063,-0.24214354,0.25087719,1.2079484,-188.93718,600.40949)"
       style="font-size:82.24489594px;font-style:normal;font-weight:normal;line-height:125%;letter-spacing:0px;word-spacing:0px;fill:url(#linearGradient3989);fill-opacity:1;stroke:url(#linearGradient4003);stroke-width:1.13139176;stroke-opacity:1;font-family:Script MT Bold;-inkscape-font-specification:Script MT Bold"
       id="text3061">
      <path
         d="m 167.28435,368.04708 c -0.66935,-1.23152 -1.67331,-2.34258 -3.0119,-3.33317 -1.33865,-0.99056 -2.8446,-1.78704 -4.51784,-2.38944 -1.67331,-0.60236 -3.42021,-1.0508 -5.2407,-1.34531 -5.40806,-0.80316 -10.45466,-2.55675 -15.13981,-5.26079 -0.4016,-0.21415 -0.82996,-0.66928 -1.28508,-1.36539 -0.45514,-0.69606 -0.68271,-1.36537 -0.6827,-2.00793 -1e-5,-2.35595 0.39488,-4.71861 1.18468,-7.088 0.78978,-2.36933 1.80043,-4.22331 3.03198,-5.56197 1.98114,-2.22207 5.54856,-4.16307 10.70228,-5.82301 5.15366,-1.65984 10.95658,-2.48978 17.40877,-2.48983 3.85518,5e-5 6.83361,0.29454 8.9353,0.88349 2.10158,0.58904 3.15239,1.4993 3.15245,2.73079 -6e-5,2.00797 -0.27447,3.56077 -0.82325,4.6584 -0.54889,1.09771 -1.13788,1.82725 -1.76698,2.18864 -0.62921,0.36147 -1.73357,0.85006 -3.31309,1.46579 -1.68671,0.58903 -3.1525,1.2048 -4.39737,1.8473 -1.24496,0.64257 -2.30917,1.25834 -3.19261,1.8473 -0.88354,0.58902 -1.43237,0.88352 -1.64651,0.88349 -0.26776,3e-5 -0.40162,-0.10706 -0.40158,-0.32127 -4e-5,-0.4551 0.47517,-1.14449 1.42563,-2.06817 0.95038,-0.92361 2.12167,-1.73348 3.51388,-2.4296 1.47244,-0.77636 2.20868,-1.27165 2.20872,-1.48587 -4e-5,-0.348 -0.8166,-0.52202 -2.44967,-0.52206 -4.95294,4e-5 -9.53102,0.44178 -13.73426,1.32524 -4.2033,0.88352 -7.51638,2.04812 -9.93926,3.4938 -2.42293,1.44574 -3.63438,2.91822 -3.63436,4.41745 -2e-5,0.93706 0.50197,1.59968 1.50595,1.98785 1.00395,0.38823 3.21936,1.03746 6.64626,1.94769 3.42684,0.91029 6.49228,1.95441 9.19632,3.13238 3.88197,1.65991 6.76,3.38673 8.63411,5.18046 1.87403,1.79377 2.81106,3.8017 2.81111,6.0238 -5e-5,1.52604 -0.36817,3.05876 -1.10437,4.59816 -0.73628,1.53942 -1.81387,2.95167 -3.23277,4.23674 -1.41898,1.28508 -3.05209,2.34259 -4.89935,3.17253 -1.57961,0.66931 -3.56746,1.29846 -5.96356,1.88746 -2.39616,0.58899 -4.99308,1.05081 -7.79077,1.38547 -2.79774,0.33465 -5.46829,0.50198 -8.01165,0.50198 -4.68519,0 -8.4534,-0.44174 -11.30466,-1.32523 -2.85127,-0.88349 -4.2769,-2.22211 -4.2769,-4.01586 0,-0.80318 0.48191,-2.05479 1.44572,-3.75484 0.9638,-1.70004 2.10163,-2.84456 3.41348,-3.43356 1.15121,-0.45512 2.26226,-0.71616 3.33317,-0.78309 1.07088,-0.0669 1.60633,0.0602 1.60634,0.3815 -1e-5,0.0803 -0.0402,0.16064 -0.12047,0.24095 -0.0803,0.0803 -0.17403,0.14726 -0.28111,0.2008 -0.1071,0.0536 -0.21419,0.10709 -0.32127,0.16063 -0.53546,0.21419 -0.97051,0.38152 -1.30516,0.50198 -0.33466,0.12049 -0.60239,0.24096 -0.80317,0.36143 -0.2008,0.12049 -0.3012,0.28781 -0.30119,0.50199 -1e-5,0.56222 2.77093,0.84333 8.31284,0.84333 4.81901,0 8.76794,-0.17402 11.8468,-0.52207 3.07879,-0.34803 5.79619,-0.97718 8.1522,-1.88745 2.35594,-0.91026 4.49773,-2.16856 6.42538,-3.77491 z"
         style="font-style:oblique;font-variant:normal;font-stretch:normal;fill:url(#linearGradient4007);fill-opacity:1;stroke:url(#linearGradient4009);stroke-width:1.43099999;stroke-miterlimit:4;stroke-opacity:1;stroke-dasharray:none;font-family:Brush Script MT;-inkscape-font-specification:Brush Script MT Oblique"
         id="path3856"
         inkscape:connector-curvature="0" />
      <path
         d="m 185.31558,368.44866 0,1.00397 c 0,1.57958 0.3882,2.81111 1.1646,3.69459 0.77639,0.8835 1.79375,1.32524 3.05206,1.32524 1.31184,0 2.67054,-0.30788 4.0761,-0.92365 1.40554,-0.61576 2.8044,-1.43232 4.19658,-2.44968 1.39214,-1.01734 3.09219,-2.38273 5.10015,-4.09618 l 0,2.44968 c -3.02531,3.64106 -5.86318,6.43208 -8.51363,8.37308 -2.65049,1.941 -5.34111,2.9115 -8.07189,2.9115 -2.38275,0 -4.27021,-0.92365 -5.66237,-2.77095 -1.39217,-1.84729 -2.08825,-4.37729 -2.08825,-7.58998 0,-2.8111 0.65592,-5.36117 1.96777,-7.65022 1.31185,-2.28903 3.45364,-4.70524 6.42539,-7.24864 2.03469,-1.74018 4.05601,-3.05203 6.06395,-3.93554 2.00792,-0.88347 3.80167,-1.32521 5.38126,-1.32524 1.25828,3e-5 2.25555,0.28783 2.99182,0.86341 0.73622,0.57564 1.10434,1.43905 1.10436,2.59023 -2e-5,1.68669 -0.62918,3.36666 -1.88746,5.03991 -1.25832,1.6733 -3.17924,3.33319 -5.76276,4.97967 -2.58355,1.64652 -5.76278,3.23279 -9.53768,4.7588 z m 0.40159,-2.61031 c 2.40951,-0.93702 4.47098,-2.10162 6.18443,-3.4938 1.71342,-1.39215 2.97842,-2.72407 3.79499,-3.99579 0.81654,-1.27166 1.22482,-2.202 1.22484,-2.79102 -2e-5,-0.61574 -0.28113,-0.92362 -0.84333,-0.92365 -0.48192,3e-5 -1.26502,0.30791 -2.34928,0.92365 -1.0843,0.61579 -2.18197,1.41896 -3.29301,2.40952 -1.11107,0.9906 -2.10834,2.1552 -2.99182,3.4938 -0.8835,1.33864 -1.4591,2.79773 -1.72682,4.37729 z"
         style="font-style:oblique;font-variant:normal;font-stretch:normal;fill:url(#linearGradient4011);fill-opacity:1;stroke:url(#linearGradient4013);stroke-opacity:1;font-family:Brush Script MT;-inkscape-font-specification:Brush Script MT Oblique"
         id="path3858"
         inkscape:connector-curvature="0" />
      <path
         d="m 207.68395,359.81456 c 4.0694,-3.69458 8.01833,-6.43875 11.8468,-8.23253 3.82843,-1.79372 6.78678,-2.69059 8.87506,-2.69063 0.56219,4e-5 1.08425,0.23429 1.56618,0.70278 0.48188,0.46855 0.86339,1.01069 1.14453,1.62643 0.28108,0.61579 0.42163,1.07092 0.42166,1.36539 -3e-5,0.48193 -0.18743,0.83666 -0.56222,1.0642 -0.37484,0.2276 -1.03077,0.50201 -1.96777,0.82326 0.18738,0.42838 0.42833,0.97721 0.72285,1.6465 0.29447,0.66933 0.52204,1.21147 0.6827,1.62643 0.16061,0.41499 0.24092,0.78311 0.24095,1.10436 -3e-5,0.64256 -0.64926,1.84062 -1.94769,3.5942 -1.29849,1.75361 -2.20875,3.04537 -2.73079,3.8753 -0.52209,0.82996 -0.78312,1.84731 -0.78309,3.05206 -3e-5,1.98117 0.91023,2.97175 2.73078,2.97174 1.87405,1e-5 4.80562,-1.75358 8.79475,-5.26078 l 0,2.44968 c -6.77346,7.52305 -11.61926,11.28457 -14.53743,11.28457 -1.04415,0 -1.78708,-0.34135 -2.22881,-1.02404 -0.44176,-0.6827 -0.66263,-1.69336 -0.66261,-3.03198 -2e-5,-2.11502 0.76299,-5.18046 2.28904,-9.19633 -3.90879,4.33714 -6.8136,7.42266 -8.71443,9.25657 -1.90085,1.83391 -3.46703,2.75087 -4.69856,2.75087 -0.589,0 -1.32524,-0.50868 -2.20872,-1.52603 -0.8835,-1.01735 -1.66659,-2.33589 -2.34928,-3.95563 -0.6827,-1.61972 -1.02405,-3.29969 -1.02405,-5.03991 0,-1.25829 0.12048,-2.30911 0.36143,-3.15245 0.24095,-0.84332 0.70947,-1.70673 1.40555,-2.59023 0.69608,-0.88348 1.80714,-2.04808 3.33317,-3.4938 z m 19.23599,-4.41746 c -6.96085,3.18594 -11.92044,5.88996 -14.87878,8.11205 -2.95836,2.22213 -4.43753,4.51117 -4.43753,6.86713 0,0.85672 0.14724,1.5595 0.44175,2.10833 0.29449,0.54884 0.69607,0.82325 1.20476,0.82325 0.29449,0 0.81655,-0.1874 1.56618,-0.56222 2.8111,-1.65988 5.38125,-3.82176 7.71046,-6.48562 2.32918,-2.66384 5.1269,-6.28481 8.39316,-10.86292 z"
         style="font-style:oblique;font-variant:normal;font-stretch:normal;fill:url(#linearGradient4015);fill-opacity:1;stroke:url(#linearGradient4017);stroke-opacity:1;font-family:Brush Script MT;-inkscape-font-specification:Brush Script MT Oblique"
         id="path3860"
         inkscape:connector-curvature="0" />
      <path
         d="m 235.99579,370.09517 0,-2.61031 c 1.44571,-1.71343 2.54338,-3.17252 3.29301,-4.3773 -0.85672,-0.29448 -1.47918,-0.6559 -1.86738,-1.08428 -0.3882,-0.42834 -0.5823,-1.07088 -0.5823,-1.92761 0,-0.96379 0.40159,-2.18194 1.20476,-3.65444 0.80317,-1.47246 1.79375,-2.85124 2.97174,-4.13634 1.17798,-1.28505 2.24888,-2.11499 3.21269,-2.48984 0.37481,-0.18737 0.73623,-0.28108 1.08428,-0.28111 0.53544,3e-5 0.80317,0.25437 0.80318,0.76302 -1e-5,0.45516 -0.41499,1.37881 -1.24492,2.77094 5.5151,-0.85669 8.99552,-1.28505 10.44125,-1.28507 0.5622,2e-5 0.9504,0.0536 1.1646,0.16063 0.45511,0.24098 0.82992,0.8032 1.12444,1.68666 0.29447,0.88352 0.44172,1.76701 0.44174,2.65047 -2e-5,0.56225 -0.24766,1.17132 -0.74293,1.82722 -0.49531,0.65595 -1.34534,1.61306 -2.55008,2.87135 -1.41895,1.52604 -2.61032,3.18593 -3.57411,4.97967 -0.96383,1.79376 -1.44573,3.14577 -1.44572,4.05602 -1e-5,1.25831 0.77639,1.88746 2.32921,1.88746 1.6331,0 4.47097,-1.65989 8.51363,-4.97968 l 0,2.69063 c -2.22214,2.32921 -4.05605,4.16312 -5.50174,5.50174 -1.44573,1.33862 -2.78435,2.40282 -4.01586,3.19261 -1.23155,0.78979 -2.32922,1.18468 -3.29301,1.18468 -1.12445,0 -2.06149,-0.51537 -2.8111,-1.54611 -0.74964,-1.03073 -1.12445,-2.5233 -1.12445,-4.47769 0,-1.1512 0.29449,-2.46305 0.88349,-3.93554 0.58899,-1.47248 1.4524,-3.07213 2.59024,-4.79896 1.13781,-1.72681 2.41619,-3.44693 3.83515,-5.16039 -0.74965,0.16066 -1.59298,0.32799 -2.53,0.50199 -0.93704,0.17404 -1.92762,0.35475 -2.97174,0.54214 -1.04413,0.18742 -1.8473,0.33467 -2.40952,0.44174 -1.65989,3.3198 -4.06941,6.33169 -7.22855,9.0357 z"
         style="font-style:oblique;font-variant:normal;font-stretch:normal;fill:url(#linearGradient4019);fill-opacity:1;stroke:url(#linearGradient4021);stroke-opacity:1;font-family:Brush Script MT;-inkscape-font-specification:Brush Script MT Oblique"
         id="path3862"
         inkscape:connector-curvature="0" />
      <path
         d="m 284.66806,367.08327 0,2.69063 c -2.86467,2.81111 -5.20056,4.99306 -7.00768,6.54586 -1.80716,1.5528 -3.49382,2.75756 -5.05999,3.61427 -1.5662,0.85672 -3.09892,1.28508 -4.59816,1.28508 -1.47249,0 -2.8245,-0.5823 -4.05603,-1.7469 -1.23153,-1.1646 -2.19534,-2.69063 -2.89142,-4.57809 -0.69608,-1.88744 -1.04412,-3.88868 -1.04412,-6.00371 0,-1.82051 0.40158,-3.44024 1.20476,-4.8592 0.80317,-1.41892 2.35597,-3.25283 4.6584,-5.50173 2.73078,-2.67722 5.26746,-4.74539 7.61006,-6.20451 2.34257,-1.45907 4.18317,-2.18862 5.52181,-2.18865 0.96379,3e-5 1.78035,0.33469 2.44968,1.00397 0.66929,0.66934 1.00394,1.51267 1.00397,2.52999 -3e-5,0.85675 -0.44177,2.07489 -1.32524,3.65444 -0.88351,1.57959 -1.87409,2.95168 -2.97174,4.11626 -1.09769,1.16462 -1.96779,1.74692 -2.61031,1.7469 -0.6961,2e-5 -1.04414,-0.3748 -1.04412,-1.12444 0.0267,-0.21416 0.0468,-0.41496 0.0602,-0.60238 0.0134,-0.18739 0.0201,-0.3748 0.0201,-0.56222 -1e-5,-0.32125 -0.11379,-0.50197 -0.34135,-0.54214 -0.22758,-0.0401 -0.50199,0.0602 -0.82325,0.30119 -2.67725,1.87408 -4.51116,3.19262 -5.50173,3.95562 -0.99059,0.76303 -1.77368,1.53274 -2.34928,2.30912 -0.57561,0.77642 -0.86342,1.59298 -0.86341,2.44968 -10e-6,1.57958 0.50867,2.86466 1.52603,3.85523 1.01734,0.99059 2.34257,1.48588 3.9757,1.48587 1.68665,10e-6 3.71466,-0.64922 6.08403,-1.94769 2.36935,-1.29846 5.16037,-3.19261 8.37308,-5.68245 z"
         style="font-style:oblique;font-variant:normal;font-stretch:normal;fill:url(#linearGradient4023);fill-opacity:1;stroke:url(#linearGradient4025);stroke-opacity:1;font-family:Brush Script MT;-inkscape-font-specification:Brush Script MT Oblique"
         id="path3864"
         inkscape:connector-curvature="0" />
      <path
         d="m 314.62641,367.00295 0,2.53 c -2.32923,2.38275 -4.34386,4.33044 -6.04388,5.84308 -1.70007,1.51264 -3.18594,2.65716 -4.45761,3.43356 -1.27171,0.7764 -2.3493,1.1646 -3.23277,1.1646 -2.08826,0 -3.13239,-1.23153 -3.13237,-3.69459 -2e-5,-1.98116 0.64921,-4.27689 1.94769,-6.88721 1.29845,-2.6103 3.16582,-5.68243 5.60213,-9.21641 -1.20478,0.66933 -2.3426,1.43904 -3.41348,2.30912 -1.07092,0.87012 -2.02134,1.78039 -2.85127,2.73079 -0.82995,0.95044 -1.52604,1.7603 -2.08824,2.4296 -1.74022,1.9544 -3.4135,3.95563 -5.01983,6.00372 -1.60636,2.04809 -2.69064,3.38002 -3.25285,3.99578 -0.56223,0.61577 -1.09768,0.92365 -1.60635,0.92365 -2.08825,0 -3.13237,-2.57015 -3.13237,-7.71046 0,-1.68665 0.25433,-3.54733 0.76301,-5.58205 0.50867,-2.03469 1.87407,-4.72531 4.09618,-8.07189 4.68517,-7.01434 8.69433,-12.75033 12.02751,-17.20797 3.33315,-4.45757 6.0974,-7.83089 8.29276,-10.11998 2.19531,-2.28899 3.6678,-3.40674 4.41745,-3.35325 0.93701,0.0804 1.69333,0.26778 2.26897,0.56222 0.57557,0.29455 0.86338,0.62921 0.86341,1.00397 -3e-5,0.66936 -0.46186,1.77372 -1.38548,3.31309 -0.92367,1.53946 -2.50994,3.94228 -4.75879,7.20847 -2.43632,3.45368 -4.16314,5.88328 -5.18047,7.2888 -1.01737,1.40558 -2.53671,3.40012 -4.558,5.98363 -2.02134,2.58357 -3.86863,4.88599 -5.5419,6.90729 -1.67328,2.02134 -3.58082,4.20998 -5.7226,6.56594 l 0,4.81903 c 3.58749,-3.98907 6.69309,-7.25531 9.3168,-9.7987 2.62368,-2.54336 4.84579,-4.46428 6.66634,-5.76277 1.8205,-1.29844 3.15912,-1.94767 4.01586,-1.94769 0.80315,2e-5 1.55277,0.47523 2.24888,1.42563 0.69606,0.95044 1.0441,1.73354 1.04413,2.34928 -3e-5,0.26775 -0.13389,0.6024 -0.40159,1.00397 -1.92764,2.30244 -3.46036,4.20998 -4.59816,5.7226 -1.13785,1.51266 -2.01465,2.86466 -2.63039,4.05602 -0.61579,1.19139 -0.92367,2.21543 -0.92365,3.07214 -2e-5,1.25831 0.60236,1.88746 1.80714,1.88746 1.28505,0 4.13631,-1.72682 8.55379,-5.18047 z"
         style="font-style:oblique;font-variant:normal;font-stretch:normal;fill:url(#linearGradient4027);fill-opacity:1;stroke:url(#linearGradient4029);stroke-opacity:1;font-family:Brush Script MT;-inkscape-font-specification:Brush Script MT Oblique"
         id="path3866"
         inkscape:connector-curvature="0" />
    </g>
  </g>
</svg>
